<svg xmlns="http://www.w3.org/2000/svg" width="49.889" height="41" viewBox="0 0 49.889 41">
  <g id="Icon_feather-camera" data-name="Icon feather-camera" transform="translate(-1 -4)">
    <path id="パス_390" data-name="パス 390" d="M50.389,40.056A4.444,4.444,0,0,1,45.944,44.5h-40A4.444,4.444,0,0,1,1.5,40.056V15.611a4.444,4.444,0,0,1,4.444-4.444h8.889L19.278,4.5H32.611l4.444,6.667h8.889a4.444,4.444,0,0,1,4.444,4.444Z" transform="translate(0)" fill="none" stroke="#9b9b9b" stroke-linecap="round" stroke-linejoin="round" stroke-width="1"/>
    <path id="パス_391" data-name="パス 391" d="M29.778,22.389A8.889,8.889,0,1,1,20.889,13.5a8.889,8.889,0,0,1,8.889,8.889Z" transform="translate(5.056 4.333)" fill="none" stroke="#9b9b9b" stroke-linecap="round" stroke-linejoin="round" stroke-width="1"/>
  </g>
</svg>
